<svg xmlns="http://www.w3.org/2000/svg" viewBox="0 0 256 256" data-visual-id="8965097c02430f4e" role="img" aria-labelledby="title">
<title id="title">水回りの兆候を早く発見</title>
<style>.line{stroke:#14344A;stroke-width:8}.blue{fill:#2E9BD4}.blue-soft{fill:#A9DBF3}.yellow{fill:#FFE100}.paper-fill{fill:#FFF;stroke:none}.badge-shell{fill:#FFE100}.badge-mark{stroke:#14344A;stroke-width:7}.decor{fill:#F2B705;stroke:#16709F;stroke-width:5;stroke-linecap:round}.secondary-disc{fill:#FFF;stroke:#CDE2F0;stroke-width:5}</style>
<rect x="4" y="4" width="248" height="248" rx="48" fill="#F6FAFD"/>
<path d="M28 218C72 198 109 223 144 210c31-11 50-38 84-31" fill="none" stroke="#CDE2F0" stroke-width="8" stroke-linecap="round"/>
<g transform="translate(40 40) scale(1.18)"><g class="blue-soft"><path d="M64 10c18 13 32 15 44 17v32c0 31-18 49-44 59-26-10-44-28-44-59V27c12-2 26-4 44-17z"/></g><g class="line" fill="none" stroke-linecap="round" stroke-linejoin="round"><path d="M64 10c18 13 32 15 44 17v32c0 31-18 49-44 59-26-10-44-28-44-59V27c12-2 26-4 44-17z"/><path d="m43 64 14 14 29-34"/></g></g>
<circle cx="190" cy="188" r="48" class="secondary-disc"/>
<g transform="translate(148 141) scale(.61)"><g class="blue-soft"><path d="M18 60 64 22l46 38v52H18z"/></g><g class="line" fill="none" stroke-linecap="round" stroke-linejoin="round"><path d="M12 62 64 18l52 44M23 57v57h82V57M45 82h14m10 0h14M43 98l42-30"/></g></g>
<circle cx="207" cy="49" r="27" class="badge-shell"/><g class="badge-mark" fill="none" stroke-linecap="round" stroke-linejoin="round"><path d="M203 39h7v23M202 62h12"/></g>
<g class="decor" aria-hidden="true"><circle cx="222" cy="184" r="8"/><circle cx="204" cy="202" r="4"/><path d="M212 160h20M222 150v20"/></g>
</svg>
